# File created by Blade
# Date/Time:  Tue Apr 07 20:53:18 2015
#---------------------------------------------------------
:version 1.10
:name HOM
:units
  mass 1.0
  length 1.000000
  angle deg
:documentation
     Acclaim Skeleton File
:root
   axis xyz
   order TX TY TZ RX RY RZ
   position 0.000000 0.000000 0.000000
   orientation 0 0 0
:bonedata
   begin
      id 1
      name Spine_dum
      direction 0.000000 1.000000 0.000000
      length 4.885285
      axis 0.0 0.0 0.0 xyz
   end
   begin
      id 2
      name LeftUpLeg_dum
      direction 1.000000 0.000000 0.000000
      length 2.672193
      axis 0.0 0.0 0.0 xyz
   end
   begin
      id 3
      name RightUpLeg_dum
      direction -1.000000 0.000000 0.000000
      length 2.672193
      axis 0.0 0.0 0.0 xyz
   end
   begin
      id 4
      name Spine
      direction 0.000000 1.000000 0.000000
      length 0.000000
      axis 0.0 0.0 0.0 xyz
      dof rx ry rz
   end
   begin
      id 5
      name Spine_dum1
      direction 0.000000 1.000000 0.000000
      length 16.494159
      axis 0.0 0.0 0.0 xyz
   end
   begin
      id 6
      name Spine_dum2
      direction 0.000000 1.000000 0.000000
      length 10.663448
      axis 0.0 0.0 0.0 xyz
   end
   begin
      id 7
      name Spine_dum3
      direction 0.000000 1.000000 0.000000
      length 10.663448
      axis 0.0 0.0 0.0 xyz
   end
   begin
      id 8
      name Head
      direction 0.000000 1.000000 0.000000
      length 4.527550
      axis 0.0 0.0 0.0 xyz
      dof rx ry rz
   end
   begin
      id 9
      name LeftShoulder
      direction 1.000000 0.000000 0.000000
      length 7.531907
      axis 0.0 0.0 -90.0 xyz
      dof rx ry rz
   end
   begin
      id 10
      name LeftArm
      direction 1.000000 0.000000 0.000000
      length 10.229199
      axis 0.0 0.0 -90.0 xyz
      dof rx ry rz
   end
   begin
      id 11
      name LeftForeArm
      direction 1.000000 0.000000 0.000000
      length 8.673495
      axis 0.0 0.0 -90.0 xyz
      dof ry rz rx
   end
   begin
      id 12
      name LeftHand
      direction 0.000000 0.000000 0.000000
      length 0.000000
      axis 0.0 0.0 -90.0 xyz
      dof rx ry rz
   end
   begin
      id 13
      name LeftHand_dum1
      direction 0.000000 0.000000 0.000000
      length 0.000000
      axis 0.0 0.0 -90.0 xyz
   end
   begin
      id 14
      name LeftHand_dum2
      direction 1.000000 0.000000 0.000000
      length 3.937000
      axis 0.0 0.0 -90.0 xyz
   end
   begin
      id 15
      name LeftHandThumb1
      direction 0.000000 0.000000 1.000000
      length 3.937000
      axis 0.0 0.0 -90.0 xyz
      dof rx rz ry
   end
   begin
      id 16
      name RightShoulder
      direction -1.000000 0.000000 0.000000
      length 7.531907
      axis 0.0 0.0 90.0 xyz
      dof rx ry rz
   end
   begin
      id 17
      name RightArm
      direction -1.000000 0.000000 0.000000
      length 10.229199
      axis 0.0 0.0 90.0 xyz
      dof rx ry rz
   end
   begin
      id 18
      name RightForeArm
      direction -1.000000 0.000000 0.000000
      length 8.673495
      axis 0.0 0.0 90.0 xyz
      dof ry rz rx
   end
   begin
      id 19
      name RightHand
      direction 0.000000 0.000000 0.000000
      length 0.000000
      axis 0.0 0.0 90.0 xyz
      dof rx ry rz
   end
   begin
      id 20
      name RightHand_dum1
      direction 0.000000 0.000000 0.000000
      length 0.000000
      axis 0.0 0.0 90.0 xyz
   end
   begin
      id 21
      name RightHand_dum2
      direction -1.000000 0.000000 0.000000
      length 3.937000
      axis 0.0 0.0 90.0 xyz
   end
   begin
      id 22
      name RightHandThumb1
      direction 0.000000 0.000000 1.000000
      length 3.937000
      axis 0.0 0.0 90.0 xyz
      dof rx rz ry
   end
   begin
      id 23
      name LeftUpLeg
      direction 0.000000 -1.000000 0.000000
      length 16.263388
      axis 0.0 0.0 0.0 xyz
      dof rx ry rz
   end
   begin
      id 24
      name LeftLeg
      direction 0.000000 -1.000000 0.000000
      length 14.328163
      axis 0.0 0.0 0.0 xyz
      dof rx ry rz
   end
   begin
      id 25
      name LeftFoot
      direction 0.000000 -0.258819 0.965926
      length 5.031290
      axis 15.0 0.0 0.0 xyz
      dof rx ry rz
   end
   begin
      id 26
      name LeftToeBase
      direction 0.000000 0.000000 1.000000
      length 2.952750
      axis 0.0 0.0 0.0 xyz
      dof rx ry rz
   end
   begin
      id 27
      name RightUpLeg
      direction 0.000000 -1.000000 0.000000
      length 16.263388
      axis 0.0 0.0 0.0 xyz
      dof rx ry rz
   end
   begin
      id 28
      name RightLeg
      direction 0.000000 -1.000000 0.000000
      length 14.328163
      axis 0.0 0.0 0.0 xyz
      dof rx ry rz
   end
   begin
      id 29
      name RightFoot
      direction 0.000000 -0.258819 0.965926
      length 5.031290
      axis 15.0 0.0 0.0 xyz
      dof rx ry rz
   end
   begin
      id 30
      name RightToeBase
      direction 0.000000 0.000000 1.000000
      length 2.952750
      axis 0.0 0.0 0.0 xyz
      dof rx ry rz
   end
:hierarchy
   begin
      root Spine_dum LeftUpLeg_dum RightUpLeg_dum
      Spine_dum Spine
      LeftUpLeg_dum LeftUpLeg
      RightUpLeg_dum RightUpLeg
      Spine Spine_dum1 Spine_dum2 Spine_dum3
      Spine_dum1 Head
      Spine_dum2 LeftShoulder
      Spine_dum3 RightShoulder
      LeftShoulder LeftArm
      LeftArm LeftForeArm
      LeftForeArm LeftHand
      LeftHand LeftHand_dum1 LeftHand_dum2
      LeftHand_dum1 LeftHandThumb1
      RightShoulder RightArm
      RightArm RightForeArm
      RightForeArm RightHand
      RightHand RightHand_dum1 RightHand_dum2
      RightHand_dum1 RightHandThumb1
      LeftUpLeg LeftLeg
      LeftLeg LeftFoot
      LeftFoot LeftToeBase
      RightUpLeg RightLeg
      RightLeg RightFoot
      RightFoot RightToeBase
   end

# File created by Blade
# Date/Time:  Tue Apr 07 20:53:11 2015
# Frame Rate: 120.000 fps
#------------------------------------------------------
:FULLY-SPECIFIED
:DEGREES
1
root -2.264221 33.001795 -0.749314 4.520470 4.849715 -2.436002
Spine -5.624246 -6.598653 0.807190
Head 12.678979 -5.267424 -0.174768
LeftShoulder -22.417015 40.527300 18.963425
LeftArm 61.661139 -59.450310 -65.145291
LeftForeArm 10.936696 -0.000000 -1.584029
LeftHand 5.076746 -0.000000 7.990094
LeftHandThumb1 -26.253704 0.000000 33.147579
RightShoulder -9.269749 4.182646 -32.630782
RightArm 10.885766 20.360920 36.248875
RightForeArm -13.248372 -0.000000 -0.218404
RightHand 3.889888 -0.000000 -2.356583
RightHandThumb1 -24.326973 -0.000000 -32.862282
LeftUpLeg 2.241740 -3.323376 1.546038
LeftLeg -5.980695 -0.000000 0.000000
LeftFoot -2.906971 6.427391 -17.113046
LeftToeBase -8.780713 -0.000000 0.000000
RightUpLeg 0.722626 -0.677249 4.069241
RightLeg -2.869070 -0.000000 0.000000
RightFoot -5.684460 -10.152372 8.078911
RightToeBase -1.842810 -0.000000 0.000000
2
root -2.269923 33.005073 -0.755908 4.555253 4.787570 -2.490385
Spine -5.632588 -6.616259 0.836796
Head 12.765503 -5.435191 -0.048304
LeftShoulder -22.410479 40.604582 18.870083
LeftArm 61.416720 -59.313345 -65.005008
LeftForeArm 10.837390 0.000000 -1.549187
LeftHand 5.054302 -0.000000 8.175002
LeftHandThumb1 -26.253704 0.000000 33.147579
RightShoulder -9.234403 4.082956 -32.518263
RightArm 10.875496 20.153668 36.376673
RightForeArm -13.017308 -0.000000 -0.099283
RightHand 4.143410 -0.000000 -2.611464
RightHandThumb1 -24.326973 -0.000000 -32.862282
LeftUpLeg 2.204848 -3.187572 1.596762
LeftLeg -6.003160 -0.000000 0.000000
LeftFoot -2.880001 6.489074 -17.102642
LeftToeBase -8.967482 -0.000000 0.000000
RightUpLeg 0.622346 -0.580226 4.119398
RightLeg -2.765089 -0.000000 0.000000
RightFoot -5.746835 -10.127875 8.198954
RightToeBase -1.753197 -0.000000 0.000000
3
root -2.275869 33.007899 -0.762707 4.583640 4.740333 -2.538644
Spine -5.627050 -6.659119 0.854620
Head 12.854483 -5.616424 0.086011
LeftShoulder -22.414605 40.688600 18.777739
LeftArm 61.366735 -59.229209 -65.125986
LeftForeArm 10.914450 -0.000000 -1.467376
LeftHand 5.089101 -0.000000 8.148331
LeftHandThumb1 -26.253704 0.000000 33.147579
RightShoulder -9.176029 4.027546 -32.391092
RightArm 10.829231 20.203121 36.566155
RightForeArm -13.089770 -0.000000 0.045745
RightHand 4.285438 -0.000000 -2.740861
RightHandThumb1 -24.326973 -0.000000 -32.862282
LeftUpLeg 2.166498 -3.075670 1.644374
LeftLeg -6.009109 -0.000000 0.000000
LeftFoot -2.859368 6.493354 -17.086063
LeftToeBase -8.929738 -0.000000 0.000000
RightUpLeg 0.538991 -0.502999 4.166525
RightLeg -2.682423 -0.000000 0.000000
RightFoot -5.808617 -10.126983 8.289906
RightToeBase -1.713541 -0.000000 0.000000
4
root -2.282554 33.010738 -0.768418 4.602347 4.684614 -2.578526
Spine -5.611979 -6.709179 0.857217
Head 12.970674 -5.779522 0.239814
LeftShoulder -22.443677 40.761843 18.669588
LeftArm 61.254820 -59.064088 -65.091384
LeftForeArm 10.876971 0.000000 -1.567901
LeftHand 5.200963 -0.000000 8.150468
LeftHandThumb1 -26.253704 0.000000 33.147579
RightShoulder -9.134380 3.986498 -32.277116
RightArm 10.776177 20.066693 36.783897
RightForeArm -13.016080 -0.000000 0.214426
RightHand 4.229951 -0.000000 -2.533408
RightHandThumb1 -24.326973 -0.000000 -32.862282
LeftUpLeg 2.143219 -2.972558 1.689139
LeftLeg -6.017449 -0.000000 0.000000
LeftFoot -2.850068 6.501574 -17.112369
LeftToeBase -8.863548 -0.000000 0.000000
RightUpLeg 0.476511 -0.432066 4.205527
RightLeg -2.613943 -0.000000 0.000000
RightFoot -5.886602 -10.106858 8.429920
RightToeBase -1.625423 -0.000000 0.000000
5
root -2.291222 33.013544 -0.774924 4.621740 4.640428 -2.613291
Spine -5.591476 -6.761827 0.842828
Head 13.075073 -5.966102 0.422323
LeftShoulder -22.454529 40.833260 18.585560
LeftArm 61.101950 -58.867838 -65.050271
LeftForeArm 10.743376 0.000000 -1.639990
LeftHand 5.245814 -0.000000 8.170725
LeftHandThumb1 -26.253704 0.000000 33.147579
RightShoulder -9.113915 3.902670 -32.137564
RightArm 10.780829 20.102178 37.057998
RightForeArm -12.935660 -0.000000 0.335926
RightHand 4.423538 -0.000000 -2.551699
RightHandThumb1 -24.326973 -0.000000 -32.862282
LeftUpLeg 2.098845 -2.821975 1.736122
LeftLeg -5.989793 -0.000000 0.000000
LeftFoot -2.821803 6.414585 -17.121426
LeftToeBase -8.924092 -0.000000 0.000000
RightUpLeg 0.417422 -0.354306 4.241814
RightLeg -2.550797 -0.000000 0.000000
RightFoot -5.993664 -10.106767 8.593714
RightToeBase -1.481660 -0.000000 0.000000
6
root -2.300994 33.015705 -0.781793 4.643689 4.596943 -2.639463
Spine -5.572459 -6.825119 0.809040
Head 13.213129 -6.192725 0.627581
LeftShoulder -22.481746 40.945498 18.510690
LeftArm 61.396444 -58.779490 -65.526257
LeftForeArm 10.898208 -0.000000 -1.741659
LeftHand 5.285028 -0.000000 8.162595
LeftHandThumb1 -26.253704 0.000000 33.147579
RightShoulder -9.109285 3.821996 -32.018033
RightArm 10.826804 19.954018 37.378022
RightForeArm -12.761235 0.000000 0.387200
RightHand 4.434617 -0.000000 -2.438949
RightHandThumb1 -24.326973 -0.000000 -32.862282
LeftUpLeg 2.063807 -2.745966 1.778891
LeftLeg -5.983667 -0.000000 0.000000
LeftFoot -2.810209 6.394556 -17.159245
LeftToeBase -8.881683 -0.000000 0.000000
RightUpLeg 0.353216 -0.312932 4.274641
RightLeg -2.484877 -0.000000 0.000000
RightFoot -6.092039 -10.094717 8.731883
RightToeBase -1.386039 -0.000000 0.000000
7
root -2.311638 33.017752 -0.789125 4.668439 4.549633 -2.662899
Spine -5.554798 -6.867861 0.765790
Head 13.341983 -6.413255 0.848381
LeftShoulder -22.462091 41.004024 18.487353
LeftArm 61.220116 -58.491133 -65.429330
LeftForeArm 10.685408 -0.000000 -1.968520
LeftHand 5.245535 -0.000000 8.277071
LeftHandThumb1 -26.253704 0.000000 33.147579
RightShoulder -9.127631 3.749566 -31.882047
RightArm 10.891467 19.980179 37.717779
RightForeArm -12.783277 -0.000000 0.394468
RightHand 4.526856 -0.000000 -2.263342
RightHandThumb1 -24.326973 -0.000000 -32.862282
LeftUpLeg 2.021263 -2.672510 1.821047
LeftLeg -5.969534 -0.000000 0.000000
LeftFoot -2.804650 6.371712 -17.216027
LeftToeBase -8.845218 -0.000000 0.000000
RightUpLeg 0.285894 -0.254590 4.308338
RightLeg -2.423053 -0.000000 0.000000
RightFoot -6.181738 -10.108272 8.853821
RightToeBase -1.322928 -0.000000 0.000000
8
root -2.324111 33.019425 -0.796490 4.700839 4.491289 -2.677343
Spine -5.539156 -6.920163 0.701328
Head 13.473610 -6.662095 1.067002
LeftShoulder -22.509356 41.058461 18.464250
LeftArm 61.666838 -58.383780 -66.058974
LeftForeArm 11.042274 0.000000 -2.229554
LeftHand 5.208831 -0.000000 7.960428
LeftHandThumb1 -26.253704 0.000000 33.147579
RightShoulder -9.135664 3.711763 -31.695310
RightArm 10.980605 20.005170 38.012544
RightForeArm -12.964042 -0.000000 0.339596
RightHand 4.487437 0.000000 -2.015779
RightHandThumb1 -24.326973 -0.000000 -32.862282
LeftUpLeg 1.972945 -2.587436 1.855953
LeftLeg -5.957582 -0.000000 0.000000
LeftFoot -2.778809 6.343309 -17.224525
LeftToeBase -8.862293 -0.000000 0.000000
RightUpLeg 0.214105 -0.179144 4.336389
RightLeg -2.373186 -0.000000 0.000000
RightFoot -6.222292 -10.152929 8.935079
RightToeBase -1.384398 -0.000000 0.000000
9
root -2.335468 33.020662 -0.804003 4.745534 4.441262 -2.685288
Spine -5.548328 -6.991839 0.643125
Head 13.641767 -6.866453 1.273488
LeftShoulder -22.498618 41.117917 18.441709
LeftArm 61.649837 -58.138238 -66.099395
LeftForeArm 10.955634 -0.000000 -2.620566
LeftHand 5.110434 -0.000000 7.610978
LeftHandThumb1 -26.253704 0.000000 33.147579
RightShoulder -9.139261 3.673477 -31.541943
RightArm 11.076350 19.908814 38.290265
RightForeArm -13.108844 -0.000000 0.211580
RightHand 4.519242 -0.000000 -1.773160
RightHandThumb1 -24.326973 -0.000000 -32.862282
LeftUpLeg 1.919667 -2.568398 1.884963
LeftLeg -5.963901 -0.000000 0.000000
LeftFoot -2.759847 6.372094 -17.238047
LeftToeBase -8.892693 -0.000000 0.000000
RightUpLeg 0.125284 -0.136130 4.359973
RightLeg -2.313518 -0.000000 0.000000
RightFoot -6.298516 -10.225354 8.995184
RightToeBase -1.316509 -0.000000 0.000000
10
root -2.347581 33.021022 -0.809937 4.790673 4.371839 -2.698934
Spine -5.568869 -7.035594 0.586820
Head 13.845668 -7.093074 1.483509
LeftShoulder -22.458295 41.144352 18.463141
LeftArm 61.924579 -58.000689 -66.492276
LeftForeArm 11.102908 -0.000000 -3.083674
LeftHand 5.105814 -0.000000 6.915921
LeftHandThumb1 -26.253704 0.000000 33.147579
RightShoulder -9.137617 3.629655 -31.380093
RightArm 11.176781 19.769383 38.534978
RightForeArm -13.245542 -0.000000 0.020528
RightHand 4.495651 0.000000 -1.344893
RightHandThumb1 -24.326973 -0.000000 -32.862282
LeftUpLeg 1.882256 -2.577202 1.917200
LeftLeg -5.993263 -0.000000 0.000000
LeftFoot -2.742027 6.464637 -17.228430
LeftToeBase -8.938251 -0.000000 0.000000
RightUpLeg 0.046715 -0.116059 4.385969
RightLeg -2.275336 -0.000000 0.000000
RightFoot -6.339825 -10.256126 9.067757
RightToeBase -1.333123 -0.000000 0.000000
11
root -2.358822 33.021790 -0.816397 4.828963 4.289411 -2.703720
Spine -5.575530 -7.077636 0.529191
Head 14.025306 -7.340458 1.663603
LeftShoulder -22.399373 41.159901 18.480745
LeftArm 62.381808 -57.957874 -67.083585
LeftForeArm 11.359502 -0.000000 -3.581213
LeftHand 5.005553 -0.000000 6.346214
LeftHandThumb1 -26.253704 0.000000 33.147579
RightShoulder -9.117325 3.499829 -31.238826
RightArm 11.281621 19.755027 38.818306
RightForeArm -13.294695 0.000000 -0.105282
RightHand 4.438717 0.000000 -0.907241
RightHandThumb1 -24.326973 -0.000000 -32.862282
LeftUpLeg 1.845821 -2.548585 1.934336
LeftLeg -6.006890 -0.000000 0.000000
LeftFoot -2.723429 6.532739 -17.206297
LeftToeBase -8.984260 -0.000000 0.000000
RightUpLeg -0.030377 -0.111226 4.400218
RightLeg -2.227892 -0.000000 0.000000
RightFoot -6.360771 -10.276264 9.092260
RightToeBase -1.391450 -0.000000 0.000000
12
root -2.369826 33.021515 -0.822142 4.867936 4.192037 -2.712904
Spine -5.579904 -7.120700 0.473595
Head 14.194840 -7.568093 1.868557
LeftShoulder -22.336972 41.176451 18.536226
LeftArm 62.027981 -57.657950 -66.841823
LeftForeArm 11.170779 -0.000000 -3.911522
LeftHand 4.733746 -0.000000 5.605726
LeftHandThumb1 -26.253704 0.000000 33.147579
RightShoulder -9.070549 3.569947 -31.138843
RightArm 11.256489 19.527987 39.046291
RightForeArm -13.239984 -0.000000 -0.290157
RightHand 4.347834 -0.000000 -0.560666
RightHandThumb1 -24.326973 -0.000000 -32.862282
LeftUpLeg 1.817337 -2.550879 1.953039
LeftLeg -6.029730 -0.000000 0.000000
LeftFoot -2.722230 6.654940 -17.175352
LeftToeBase -9.017390 -0.000000 0.000000
RightUpLeg -0.097480 -0.108486 4.419652
RightLeg -2.199109 -0.000000 0.000000
RightFoot -6.392677 -10.279196 9.154166
RightToeBase -1.365276 -0.000000 0.000000
13
root -2.381421 33.021823 -0.828021 4.907205 4.091326 -2.732033
Spine -5.582488 -7.174185 0.445227
Head 14.364063 -7.814688 2.003007
LeftShoulder -22.270749 41.189806 18.562702
LeftArm 61.900056 -57.496009 -66.889044
LeftForeArm 11.130232 -0.000000 -4.156180
LeftHand 4.335677 -0.000000 4.863267
LeftHandThumb1 -26.253704 0.000000 33.147579
RightShoulder -9.022034 3.421439 -31.023383
RightArm 11.402155 19.537258 39.336431
RightForeArm -13.107313 -0.000000 -0.514543
RightHand 4.189458 -0.000000 -0.390484
RightHandThumb1 -24.326973 -0.000000 -32.862282
LeftUpLeg 1.789229 -2.554553 1.981773
LeftLeg -6.057522 -0.000000 0.000000
LeftFoot -2.724790 6.788053 -17.112192
LeftToeBase -9.075471 -0.000000 0.000000
RightUpLeg -0.165823 -0.125061 4.450469
RightLeg -2.168288 -0.000000 0.000000
RightFoot -6.404318 -10.266180 9.177112
RightToeBase -1.392110 -0.000000 0.000000
